<svg xmlns="http://www.w3.org/2000/svg" width="1200" height="400" aria-labelledby="hero-title hero-desc" role="img" viewBox="0 0 1200 400"><title id="hero-title">chinese-proofread 中文校对助手 — 浏览器本地 AI 中文长文智能校对</title><desc id="hero-desc">本地离线运行的中文校对浏览器扩展，红色波浪线标出错别字并给出修正建议。</desc><rect width="1200" height="400" fill="#0f172a" rx="16"/><text x="64" y="92" fill="#fff" font-family="-apple-system, 'PingFang SC', sans-serif" font-size="44" font-weight="700">chinese-proofread</text><text x="64" y="132" fill="#94a3b8" font-family="-apple-system, 'PingFang SC', sans-serif" font-size="22">中文校对助手</text><text x="64" y="196" fill="#cbd5e1" font-family="-apple-system, 'PingFang SC', sans-serif" font-size="18">浏览器本地 AI 中文长文智能校对</text><text x="64" y="226" fill="#cbd5e1" font-family="-apple-system, 'PingFang SC', sans-serif" font-size="18">离线可用 · 隐私保护 · 文字不离浏览器</text><rect width="112" height="36" x="64" y="262" fill="#1e293b" rx="18"/><text x="120" y="286" fill="#38bdf8" font-family="-apple-system, 'PingFang SC', sans-serif" font-size="15" text-anchor="middle">⚡ 本地推理</text><rect width="112" height="36" x="192" y="262" fill="#1e293b" rx="18"/><text x="248" y="286" fill="#4ade80" font-family="-apple-system, 'PingFang SC', sans-serif" font-size="15" text-anchor="middle">🔒 零上传</text><rect width="112" height="36" x="320" y="262" fill="#1e293b" rx="18"/><text x="376" y="286" fill="#fbbf24" font-family="-apple-system, 'PingFang SC', sans-serif" font-size="15" text-anchor="middle">📖 长文支持</text><text x="64" y="352" fill="#64748b" font-family="ui-monospace, 'SF Mono', Menlo, monospace" font-size="13">MacBERT4CSC · ONNX · WebGPU / WASM</text><rect width="576" height="296" x="560" y="52" fill="#1e293b" rx="12"/><circle cx="584" cy="76" r="6" fill="#f87171"/><circle cx="604" cy="76" r="6" fill="#fbbf24"/><circle cx="624" cy="76" r="6" fill="#4ade80"/><text x="644" y="81" fill="#64748b" font-family="ui-monospace, monospace" font-size="13">校对结果 · 2 处疑似错误</text><text x="584" y="140" fill="#e2e8f0" font-family="-apple-system, 'PingFang SC', sans-serif" font-size="30"><tspan>今天</tspan><tspan fill="#f87171" text-decoration="underline" text-decoration-color="#f87171">新情</tspan><tspan>很好。</tspan></text><path fill="none" stroke="#f87171" stroke-width="2.5" d="M608 150 q6 5 12 0 q6 -5 12 0"/><path fill="none" stroke="#f87171" stroke-width="2.5" d="M632 150 q6 5 12 0 q6 -5 12 0"/><rect width="176" height="44" x="936" y="104" fill="#f87171" rx="8"/><text x="950" y="131" fill="#fff" font-family="-apple-system, 'PingFang SC', sans-serif" font-size="17">新情 → 心情</text><text x="584" y="210" fill="#e2e8f0" font-family="-apple-system, 'PingFang SC', sans-serif" font-size="30"><tspan>我也很</tspan><tspan fill="#f87171" text-decoration="underline" text-decoration-color="#f87171">高心</tspan><tspan>。</tspan></text><path fill="none" stroke="#f87171" stroke-width="2.5" d="M724 220 q6 5 12 0 q6 -5 12 0"/><path fill="none" stroke="#f87171" stroke-width="2.5" d="M748 220 q6 5 12 0 q6 -5 12 0"/><rect width="176" height="44" x="936" y="196" fill="#f87171" rx="8"/><text x="950" y="223" fill="#fff" font-family="-apple-system, 'PingFang SC', sans-serif" font-size="17">高心 → 高兴</text><text x="584" y="280" fill="#e2e8f0" font-family="-apple-system, 'PingFang SC', sans-serif" font-size="30">明天也要加油。</text><text x="584" y="322" fill="#64748b" font-family="-apple-system, 'PingFang SC', sans-serif" font-size="30">后天继续努力。</text></svg>